<?xml version="1.0" standalone="no"?>
<!DOCTYPE svg PUBLIC "-//W3C//DTD SVG 20010904//EN"
 "http://www.w3.org/TR/2001/REC-SVG-20010904/DTD/svg10.dtd">
<svg version="1.0" xmlns="http://www.w3.org/2000/svg"
 width="880.000000pt" height="880.000000pt" viewBox="0 0 880.000000 880.000000"
 preserveAspectRatio="xMidYMid meet">
<metadata>
Created by potrace 1.14, written by Peter Selinger 2001-2017
</metadata>
<g transform="translate(0.000000,880.000000) scale(0.100000,-0.100000)"
fill="#000000" stroke="none">
<path d="M4165 8083 c-64 -10 -72 -32 -135 -368 -22 -121 -58 -310 -80 -420
-87 -444 -170 -893 -170 -917 0 -23 5 -27 42 -33 178 -30 885 -29 1032 1 38 8
40 -14 -49 449 -70 367 -120 629 -165 865 -64 338 -72 372 -96 399 -21 25 -24
25 -185 27 -90 1 -177 0 -194 -3z"/>
<path d="M3566 5283 c-3 -10 -17 -81 -31 -158 -15 -77 -49 -257 -76 -400 -77
-400 -75 -380 -55 -410 52 -80 237 -140 551 -181 158 -20 572 -23 720 -5 317
38 555 118 585 196 6 15 4 50 -5 97 -8 40 -42 219 -75 398 -71 377 -90 473
-94 478 -2 1 -19 -6 -37 -17 -44 -26 -127 -47 -264 -69 -143 -22 -759 -25
-900 -4 -128 19 -242 49 -281 72 -31 19 -33 20 -38 3z"/>
<path d="M3192 3318 c-6 -29 -23 -118 -38 -198 -15 -80 -30 -148 -34 -153 -3
-4 -85 -30 -181 -57 -1142 -323 -1174 -333 -1199 -379 -12 -23 -5 -101 12
-136 20 -39 86 -100 338 -308 140 -116 291 -241 335 -277 167 -138 317 -262
540 -445 127 -104 266 -219 310 -255 475 -395 577 -446 780 -391 86 24 191 66
335 134 52 24 151 70 220 102 69 32 168 78 220 102 52 25 133 62 180 83 47 21
135 61 195 90 61 28 220 103 355 165 135 62 286 132 335 155 188 88 584 272
680 315 292 132 452 213 473 240 11 14 23 48 27 75 12 87 -14 110 -265 226
-132 61 -496 222 -680 300 -30 13 -176 77 -325 142 l-270 119 -11 44 c-7 24
-24 109 -39 189 -15 80 -30 149 -34 153 -5 4 -14 -6 -21 -23 -7 -17 -34 -50
-60 -73 -187 -168 -702 -275 -1192 -246 -510 29 -877 154 -959 327 l-16 32
-11 -52z"/>
</g>
</svg>
